<?xml version="1.0" encoding="utf-8"?>
<!-- Generator: Adobe Illustrator 23.0.5, SVG Export Plug-In . SVG Version: 6.00 Build 0)  -->
<svg version="1.1" id="Layer_1" xmlns="http://www.w3.org/2000/svg" xmlns:xlink="http://www.w3.org/1999/xlink" x="0px" y="0px"
	 viewBox="0 0 1024 1024" style="enable-background:new 0 0 1024 1024;" xml:space="preserve">
<style type="text/css">
	.st0{fill:#222F1B;}
	.st1{fill:none;stroke:#222F1B;stroke-miterlimit:10;}
</style>
<title>datanotfounddd</title>
<ellipse className="st0" cx="522.5" cy="567.7" rx="351.7" ry="76.9"/>
<path className="st1" d="M776.7,347.6L665.2,221.2c-5.3-8.6-13.2-13.8-21.4-13.8H404c-8.2,0-16,5.2-21.4,13.8L271.1,347.6v101.5h505.6
	V347.6z"/>
<path className="st0" d="M622.8,383.3c0-18.1,10.8-33,24.2-33h129.7v199.3c0,23.3-14.5,42.5-32.4,42.5H303.5
	c-17.9,0-32.4-19.1-32.4-42.5V350.3h118.7c13.4,0,24.2,14.9,24.2,33v0.3c0,18.1,10.9,32.7,24.3,32.7h160.2
	C611.9,416.2,622.8,401.5,622.8,383.3L622.8,383.3L622.8,383.3z"/>
<path className="st0" d="M90.3,771.5v-87.8h28.5c26.2,0,44,17.7,44,44s-17.5,43.8-43.5,43.8L90.3,771.5z M102.2,694.6v65.8h16.3
	c19.6,0,31.9-12.6,31.9-32.8c0-20.4-12.4-33-32.4-33L102.2,694.6z"/>
<path className="st0" d="M173.1,755c0-10.9,8.1-17.7,22.1-18.8l18.7-1.5V733c0-10-6-13.5-14-13.5c-9.6,0-15.1,4.3-15.1,11.4h-10
	c0-12.4,10.2-20.5,25.5-20.5c14.7,0,24.7,7.8,24.7,23.8v37.3h-9.7l-1.2-9.6c-3,6.8-11.2,11-20.8,11C180.6,773,173.1,765.8,173.1,755
	z M214,745.9v-3.2l-15.2,1.2c-10.1,1-14.2,4.9-14.2,10.7c0,6.3,4.6,9.5,12,9.5C207.5,764.1,214.1,757.1,214,745.9L214,745.9z"/>
<path className="st0" d="M245.3,771.5v-49.8h-11.7v-9.6h11.7v-18.6h11.4v18.6h11.7v9.6h-11.7v49.8H245.3z"/>
<path className="st0" d="M274.9,755c0-10.9,8.1-17.7,22.1-18.8l18.7-1.5V733c0-10-6-13.5-14-13.5c-9.6,0-15.1,4.3-15.1,11.4h-10
	c0-12.4,10.2-20.5,25.5-20.5c14.7,0,24.7,7.8,24.7,23.8v37.3h-9.7l-1.2-9.6c-3,6.8-11.2,11-20.8,11C282.4,773,274.9,765.8,274.9,755
	z M315.8,745.9v-3.2l-15.2,1.2c-10.1,1-14.2,4.9-14.2,10.7c0,6.3,4.6,9.5,12,9.5C309.3,764.1,315.8,757.1,315.8,745.9z"/>
<path className="st0" d="M377.8,771.5v-87.8h11.9l44.9,67.9v-67.9h11.9v87.8h-11.9l-44.9-67.9v67.9H377.8z"/>
<path className="st0" d="M492.1,710.5c17.7,0,30.9,12.9,30.9,31.2S509.8,773,492.1,773s-31-12.9-31-31.2S474.2,710.5,492.1,710.5z
	 M492.1,762.8c11.4,0,19.4-8.6,19.4-21s-8-21-19.4-21s-19.4,8.6-19.4,21S480.5,762.8,492.1,762.8z"/>
<path className="st0" d="M540.3,771.5v-49.8h-11.7v-9.6h11.7v-18.6h11.4v18.6h11.7v9.6h-11.7v49.8H540.3z"/>
<path className="st0" d="M620.6,734.2v37.3h-11.9v-87.8h53v10.9h-41v28.8h34.5v10.8H620.6z"/>
<path className="st0" d="M696.6,710.5c17.7,0,30.8,12.9,30.8,31.2S714.3,773,696.6,773s-31-12.9-31-31.2S678.8,710.5,696.6,710.5z
	 M696.6,762.8c11.4,0,19.4-8.6,19.4-21s-8-21-19.4-21s-19.4,8.6-19.4,21S685.1,762.8,696.6,762.8z"/>
<path className="st0" d="M791,712.1v59.4h-10.2l-1.2-9c-3.4,6.2-11.3,10.5-20,10.5c-13.8,0-21.6-9.3-21.6-23.9v-36.9h11.4v33.2
	c0,12.8,5.5,17.6,14.2,17.6c10.5,0,16.2-6.7,16.2-19.4v-31.3H791z"/>
<path className="st0" d="M807.5,771.5v-59.4h10.3l1.2,9.1c3.8-6.8,11.3-10.8,19.7-10.8c15.7,0,22.8,9.6,22.8,24.8v36.3h-11.4v-33.8
	c0-12-5.6-16.9-14.3-16.9c-10.7,0-16.9,7.7-16.9,19.2v31.5L807.5,771.5L807.5,771.5z"/>
<path className="st0" d="M873.5,742c0-18.2,10.6-31.6,28.2-31.6c9.1,0,16.8,4,20.8,11.3v-39.6h11.3v89.4h-10.2l-1-10.8
	c-3.9,8.1-11.9,12.3-21.4,12.3C883.9,773,873.5,760.1,873.5,742z M922.3,741.6c0-12.2-7.2-20.9-18.8-20.9s-18.5,8.8-18.5,20.9
	s6.8,21,18.5,21S922.3,754,922.3,741.6z"/>
</svg>
